{
  "accessors": [
    {
      "bufferView": 2,
      "componentType": 5126,
      "count": 1112,
      "max": [
        0.036488182842731476,
        0.06378598511219025,
        0.03648817911744118
      ],
      "min": [
        -0.03648816794157028,
        -0.08236470818519592,
        -0.036488186568021774
      ],
      "type": "VEC3"
    },
    {
      "bufferView": 2,
      "byteOffset": 13344,
      "componentType": 5126,
      "count": 1112,
      "max": [
        1.0,
        0.8912513256072998,
        1.0
      ],
      "min": [
        -1.0,
        0.0,
        -1.0
      ],
      "type": "VEC3"
    },
    {
      "bufferView": 1,
      "componentType": 5126,
      "count": 1112,
      "max": [
        1.383076548576355,
        0.810818612575531
      ],
      "min": [
        -0.3212106227874756,
        0.041964273899793625
      ],
      "type": "VEC2"
    },
    {
      "bufferView": 0,
      "componentType": 5125,
      "count": 5400,
      "type": "SCALAR"
    },
    {
      "bufferView": 2,
      "byteOffset": 26688,
      "componentType": 5126,
      "count": 3848,
      "max": [
        0.036488182842731476,
        0.06333248317241669,
        0.03648817911744118
      ],
      "min": [
        -0.03648816794157028,
        -0.09250808507204056,
        -0.036488186568021774
      ],
      "type": "VEC3"
    },
    {
      "bufferView": 2,
      "byteOffset": 72864,
      "componentType": 5126,
      "count": 3848,
      "max": [
        1.0,
        1.0,
        1.0
      ],
      "min": [
        -1.0,
        -0.804791271686554,
        -1.0
      ],
      "type": "VEC3"
    },
    {
      "bufferView": 1,
      "byteOffset": 8896,
      "componentType": 5126,
      "count": 3848,
      "max": [
        2.089686632156372,
        0.810818612575531
      ],
      "min": [
        -0.33280134201049805,
        -0.07331177592277527
      ],
      "type": "VEC2"
    },
    {
      "bufferView": 0,
      "byteOffset": 21600,
      "componentType": 5125,
      "count": 18036,
      "type": "SCALAR"
    },
    {
      "bufferView": 2,
      "byteOffset": 119040,
      "componentType": 5126,
      "count": 2413,
      "max": [
        0.029507869854569435,
        0.06646828353404999,
        0.029507864266633987
      ],
      "min": [
        -0.02950786054134369,
        0.04857189208269119,
        -0.029507875442504883
      ],
      "type": "VEC3"
    },
    {
      "bufferView": 2,
      "byteOffset": 147996,
      "componentType": 5126,
      "count": 2413,
      "max": [
        0.9994838833808899,
        0.9101577997207642,
        0.9994837045669556
      ],
      "min": [
        -0.9994837641716003,
        -1.0,
        -0.9994838833808899
      ],
      "type": "VEC3"
    },
    {
      "bufferView": 1,
      "byteOffset": 39680,
      "componentType": 5126,
      "count": 2413,
      "max": [
        1.979398488998413,
        0.9112247824668884
      ],
      "min": [
        -0.33500897884368896,
        0.7661259770393372
      ],
      "type": "VEC2"
    },
    {
      "bufferView": 0,
      "byteOffset": 93744,
      "componentType": 5125,
      "count": 9552,
      "type": "SCALAR"
    },
    {
      "bufferView": 2,
      "byteOffset": 176952,
      "componentType": 5126,
      "count": 1457,
      "max": [
        0.00920721236616373,
        0.0005642697215080261,
        0.013409597799181938
      ],
      "min": [
        -0.009207216091454029,
        -0.0014833882451057434,
        -0.015297244302928448
      ],
      "type": "VEC3"
    },
    {
      "bufferView": 2,
      "byteOffset": 194436,
      "componentType": 5126,
      "count": 1457,
      "max": [
        1.0,
        0.9981852769851685,
        0.9997972249984741
      ],
      "min": [
        -1.0,
        -0.999761700630188,
        -0.9987042546272278
      ],
      "type": "VEC3"
    },
    {
      "bufferView": 1,
      "byteOffset": 58984,
      "componentType": 5126,
      "count": 1457,
      "max": [
        0.0,
        0.0
      ],
      "min": [
        0.0,
        0.0
      ],
      "type": "VEC2"
    },
    {
      "bufferView": 0,
      "byteOffset": 131952,
      "componentType": 5125,
      "count": 8292,
      "type": "SCALAR"
    },
    {
      "bufferView": 2,
      "byteOffset": 211920,
      "componentType": 5126,
      "count": 192,
      "max": [
        0.0018988886149600148,
        8.58228886500001e-05,
        0.005144777707755566
      ],
      "min": [
        -0.0014444728149101138,
        -0.0008125655585899949,
        0.0018509855726733804
      ],
      "type": "VEC3"
    },
    {
      "bufferView": 2,
      "byteOffset": 214224,
      "componentType": 5126,
      "count": 192,
      "max": [
        0.9951848387718201,
        0.974761962890625,
        0.9700679779052734
      ],
      "min": [
        -0.9951848983764648,
        -0.974761962890625,
        -0.9700682759284973
      ],
      "type": "VEC3"
    },
    {
      "bufferView": 1,
      "byteOffset": 70640,
      "componentType": 5126,
      "count": 192,
      "max": [
        1.0,
        1.0
      ],
      "min": [
        0.0,
        0.01000000536441803
      ],
      "type": "VEC2"
    },
    {
      "bufferView": 0,
      "byteOffset": 165120,
      "componentType": 5125,
      "count": 372,
      "type": "SCALAR"
    }
  ],
  "asset": {
    "extras": {
      "author": "alpaca. (https://sketchfab.com/alpaca.)",
      "license": "CC-BY-4.0 (http://creativecommons.org/licenses/by/4.0/)",
      "source": "https://sketchfab.com/3d-models/arizona-can-1c44d008f1a44a72a9874d75b14bd9fe",
      "title": "Arizona Can"
    },
    "generator": "Sketchfab-12.55.0",
    "version": "2.0"
  },
  "bufferViews": [
    {
      "buffer": 0,
      "byteLength": 166608,
      "name": "floatBufferViews",
      "target": 34963
    },
    {
      "buffer": 0,
      "byteLength": 72176,
      "byteOffset": 166608,
      "byteStride": 8,
      "name": "floatBufferViews",
      "target": 34962
    },
    {
      "buffer": 0,
      "byteLength": 216528,
      "byteOffset": 238784,
      "byteStride": 12,
      "name": "floatBufferViews",
      "target": 34962
    }
  ],
  "buffers": [
    {
      "byteLength": 455312,
      "uri": "scene.bin"
    }
  ],
  "extensionsUsed": [
    "KHR_texture_transform"
  ],
  "images": [
    {
      "uri": "textures/Label_baseColor.png"
    },
    {
      "uri": "textures/material_baseColor.png"
    }
  ],
  "materials": [
    {
      "doubleSided": true,
      "name": "Label",
      "pbrMetallicRoughness": {
        "baseColorTexture": {
          "extensions": {
            "KHR_texture_transform": {
              "offset": [
                0.0011194150987450247,
                0.19
              ],
              "scale": [
                0.7654476160364356,
                0.8499999999999998
              ]
            }
          },
          "index": 0
        },
        "metallicFactor": 0.13995578646816334,
        "roughnessFactor": 0.1085521047005129
      }
    },
    {
      "doubleSided": true,
      "name": "Aluminium",
      "pbrMetallicRoughness": {
        "roughnessFactor": 0.22160535906405446
      }
    },
    {
      "doubleSided": true,
      "name": "material",
      "pbrMetallicRoughness": {
        "baseColorTexture": {
          "index": 1
        },
        "metallicFactor": 0.2655705135387651,
        "roughnessFactor": 0.2655705135387651
      }
    },
    {
      "doubleSided": true,
      "name": "material_3",
      "pbrMetallicRoughness": {
        "baseColorTexture": {
          "index": 1
        },
        "metallicFactor": 0.0,
        "roughnessFactor": 0.3
      }
    }
  ],
  "meshes": [
    {
      "name": "Object_0",
      "primitives": [
        {
          "attributes": {
            "NORMAL": 1,
            "POSITION": 0,
            "TEXCOORD_0": 2
          },
          "indices": 3,
          "material": 0,
          "mode": 4
        }
      ]
    },
    {
      "name": "Object_1",
      "primitives": [
        {
          "attributes": {
            "NORMAL": 5,
            "POSITION": 4,
            "TEXCOORD_0": 6
          },
          "indices": 7,
          "material": 1,
          "mode": 4
        }
      ]
    },
    {
      "name": "Object_2",
      "primitives": [
        {
          "attributes": {
            "NORMAL": 9,
            "POSITION": 8,
            "TEXCOORD_0": 10
          },
          "indices": 11,
          "material": 2,
          "mode": 4
        }
      ]
    },
    {
      "name": "Object_3",
      "primitives": [
        {
          "attributes": {
            "NORMAL": 13,
            "POSITION": 12,
            "TEXCOORD_0": 14
          },
          "indices": 15,
          "material": 2,
          "mode": 4
        }
      ]
    },
    {
      "name": "Object_4",
      "primitives": [
        {
          "attributes": {
            "NORMAL": 17,
            "POSITION": 16,
            "TEXCOORD_0": 18
          },
          "indices": 19,
          "material": 3,
          "mode": 4
        }
      ]
    }
  ],
  "nodes": [
    {
      "children": [
        1
      ],
      "matrix": [
        1.0,
        0.0,
        0.0,
        0.0,
        0.0,
        2.220446049250313e-16,
        -1.0,
        0.0,
        0.0,
        1.0,
        2.220446049250313e-16,
        0.0,
        0.0,
        0.0,
        0.0,
        1.0
      ],
      "name": "Sketchfab_model"
    },
    {
      "children": [
        2
      ],
      "name": "root"
    },
    {
      "children": [
        3,
        7
      ],
      "matrix": [
        1.0,
        0.0,
        0.0,
        0.0,
        0.0,
        2.220446049250313e-16,
        1.0,
        0.0,
        0.0,
        -1.0,
        2.220446049250313e-16,
        0.0,
        0.0,
        0.0,
        0.0,
        1.0
      ],
      "name": "GLTF_SceneRootNode"
    },
    {
      "children": [
        4,
        5,
        6
      ],
      "name": "Can_0"
    },
    {
      "mesh": 0,
      "name": "Object_4"
    },
    {
      "mesh": 1,
      "name": "Object_5"
    },
    {
      "mesh": 2,
      "name": "Object_6"
    },
    {
      "children": [
        8,
        9
      ],
      "matrix": [
        1.0,
        0.0,
        0.0,
        0.0,
        0.0,
        0.9747618825206901,
        0.22324711058537874,
        0.0,
        0.0,
        -0.22324711058537874,
        0.9747618825206901,
        0.0,
        0.0,
        0.06511768698692322,
        -0.00236739544197917,
        1.0
      ],
      "name": "Can opener tab_1"
    },
    {
      "mesh": 3,
      "name": "Object_8"
    },
    {
      "mesh": 4,
      "name": "Object_9"
    }
  ],
  "samplers": [
    {
      "magFilter": 9729,
      "minFilter": 9987,
      "wrapS": 10497,
      "wrapT": 10497
    }
  ],
  "scene": 0,
  "scenes": [
    {
      "name": "Sketchfab_Scene",
      "nodes": [
        0
      ]
    }
  ],
  "textures": [
    {
      "sampler": 0,
      "source": 0
    },
    {
      "sampler": 0,
      "source": 1
    }
  ]
}
